<svg enable-background="new 0 0 90 52" height="240.370085" viewBox="0 0 90 52" width="416.025147" xmlns="http://www.w3.org/2000/svg"><g fill="#094792"><path d="m54.203 28.259c3.389 0 6.106-2.542 6.106-5.895 0-3.354-2.718-5.896-6.106-5.896s-6.107 2.542-6.107 5.896c0 3.353 2.718 5.895 6.107 5.895m0-8.723c1.564 0 2.855 1.279 2.855 2.828s-1.291 2.828-2.855 2.828-2.855-1.279-2.855-2.828 1.291-2.828 2.855-2.828"/><path d="m69.36 24.214c1.094-.752 1.96-1.866 1.96-3.384 0-2.361-1.9-4.106-4.301-4.106h-5.18v11.28h3.1v-3.069h1.458l1.413 3.069h3.479zm-2.34-2.061h-2.08v-2.663h2.08c.7 0 1.156.782 1.156 1.339 0 .558-.456 1.324-1.156 1.324"/><path d="m73.201 16.724h3.1v11.28h-3.1z"/><path d="m82.74 16.723-5.225 11.279h3.322l.545-1.277h3.877l.545 1.277h3.322l-5.223-11.279zm-.412 7.324.963-2.196h.062l.961 2.196z"/><path d="m41.213 28.004h3.1v-8.513h3.115v-2.767h-7.503l7.288-15.724h-46.34l7.333 15.826h3.419l2.806 6.054 2.805-6.054h3.426l-5.133 11.078h-2.189l10.702 23.096 10.948-23.628c-.848.491-1.834.772-2.887.772-3.308 0-5.936-2.496-5.936-5.79s2.628-5.79 5.936-5.79c2.114 0 3.959 1.138 4.963 2.821l-2.585 1.551c-.487-.798-1.374-1.359-2.378-1.359-1.535 0-2.776 1.256-2.776 2.777s1.241 2.778 2.776 2.778c1.005 0 1.891-.547 2.378-1.36l1.703 1.022 2.458-5.304h2.569v8.514zm-16.455-.1h-3.164v-11.078h3.164z"/><path d="m43.05 37.315c-.725 0-1.391-.282-1.797-.608l-.586.905c.606.489 1.524.737 2.378.737 1.214 0 2.309-.591 2.309-1.837 0-.983-.789-1.413-1.796-1.579l-.318-.052c-.678-.114-1.165-.237-1.165-.654 0-.427.446-.676 1.079-.676.617 0 1.157.204 1.6.479l.532-.919c-.709-.422-1.367-.599-2.155-.599-1.202 0-2.249.611-2.249 1.787 0 1.021.725 1.46 1.72 1.616l.359.057c.785.125 1.196.271 1.196.661.001.434-.482.682-1.107.682"/><path d="m49.174 37.94-.387-.824c-.213.131-.482.256-.732.256-.326 0-.584-.178-.584-.665v-1.427h1.412v-.935h-1.412v-1.16h-1.053v1.16h-.754v.935h.754v1.511c0 1.011.494 1.559 1.463 1.559.556 0 .949-.177 1.293-.41"/><path d="m53.445 38.25v-3.904h-1.028v.429c-.258-.317-.632-.534-1.169-.534-1.075 0-1.889.883-1.889 2.055 0 1.173.813 2.055 1.889 2.055.537 0 .915-.218 1.169-.529v.43h1.028zm-2.002-.879c-.617 0-1.008-.48-1.008-1.076 0-.597.391-1.075 1.008-1.075.6 0 1.006.458 1.006 1.075 0 .618-.406 1.076-1.006 1.076"/><path d="m56.217 38.35c.557 0 .951-.177 1.293-.409l-.387-.823c-.213.13-.482.255-.734.255-.326 0-.584-.179-.584-.665v-1.428h1.416v-.935h-1.416v-1.16h-1.051v1.16h-.754v.935h.754v1.512c0 1.01.496 1.558 1.463 1.558"/><path d="m60.77 37.08c-.283.239-.648.377-.988.377-.494 0-.889-.246-1.003-.812h2.769c.014-.089.02-.233.02-.354-.004-1.217-.773-2.051-1.896-2.051-1.17 0-1.975.838-1.975 2.067s.83 2.042 2.026 2.042c.657 0 1.222-.185 1.664-.591zm-1.108-1.933c.45 0 .752.282.85.781h-1.729c.092-.483.383-.781.879-.781"/><path d="m43.751 42.371v.938h1.434c-.149.803-.685 1.247-1.603 1.247-.977 0-1.761-.722-1.761-1.874 0-1.1.75-1.857 1.78-1.857.577 0 1.044.226 1.363.591l.81-.793c-.499-.544-1.245-.865-2.139-.865-1.734 0-2.978 1.221-2.978 2.925 0 1.822 1.386 2.92 2.949 2.92 1.6 0 2.757-1.202 2.757-2.912 0-.104-.005-.21-.017-.318h-2.595z"/><path d="m49.001 41.492c-1.214 0-2.108.879-2.108 2.055 0 1.177.895 2.055 2.108 2.055 1.217 0 2.116-.878 2.116-2.055 0-1.176-.899-2.055-2.116-2.055m0 3.132c-.593 0-1.035-.442-1.035-1.077 0-.632.442-1.074 1.035-1.074.592 0 1.04.442 1.04 1.074 0 .635-.448 1.077-1.04 1.077"/><path d="m53.376 44.394-1.012-2.797h-1.143l1.543 3.905h1.213l1.527-3.905h-1.108z"/><path d="m57.587 41.492c-1.169 0-1.976.839-1.976 2.067s.83 2.042 2.028 2.042c.656 0 1.222-.184 1.663-.591l-.617-.678c-.281.237-.647.376-.986.376-.496 0-.891-.246-1.004-.809h2.77c.012-.09.02-.235.02-.356-.005-1.217-.774-2.051-1.898-2.051m-.887 1.689c.093-.483.383-.781.879-.781.45 0 .752.282.849.781z"/><path d="m61.2 42.024v-.428h-1.02v3.905h1.052v-2.126c0-.583.334-.881.822-.881.213 0 .463.049.637.126l.156-1.043c-.145-.053-.322-.086-.547-.086-.479.001-.853.167-1.1.533"/><path d="m65.576 41.492c-.443 0-.87.149-1.148.562v-.458h-1.023v3.905h1.052v-2.14c0-.588.375-.883.827-.883.479 0 .761.31.761.876v2.146h1.052v-2.486c-.001-.906-.634-1.522-1.521-1.522"/><path d="m72.792 41.492c-.513 0-1.022.174-1.326.67-.262-.415-.724-.67-1.289-.67-.442 0-.87.149-1.149.562v-.458h-1.023v3.905h1.053v-2.14c0-.588.375-.883.826-.883.48 0 .762.31.762.876v2.146h1.053v-2.14c0-.588.374-.883.824-.883.477 0 .762.31.762.876v2.146h1.048v-2.486c-.002-.905-.621-1.521-1.541-1.521"/><path d="m76.975 41.492c-1.169 0-1.977.839-1.977 2.067s.832 2.042 2.027 2.042c.658 0 1.221-.184 1.666-.591l-.617-.678c-.281.237-.648.376-.986.376-.497 0-.893-.246-1.004-.809h2.768c.012-.09.02-.235.02-.356-.005-1.217-.774-2.051-1.897-2.051m-.887 1.689c.093-.483.382-.781.879-.781.451 0 .752.282.85.781z"/><path d="m81.74 41.492c-.443 0-.869.149-1.148.562v-.458h-1.023v3.905h1.053v-2.14c0-.588.373-.883.826-.883.479 0 .762.31.762.876v2.146h1.051v-2.486c-.001-.906-.634-1.522-1.521-1.522"/><path d="m86.133 44.624c-.328 0-.586-.178-.586-.665v-1.427h1.414v-.934h-1.414v-1.161h-1.051v1.161h-.754v.934h.754v1.511c0 1.012.496 1.559 1.463 1.559.557 0 .949-.177 1.293-.409l-.387-.824c-.213.13-.482.255-.732.255"/></g></svg>